<svg xmlns="http://www.w3.org/2000/svg" viewBox="0 0 215.31 288.48"><defs><style>.cls-1,.cls-3{fill:none;stroke:#000;}.cls-1{stroke-miterlimit:10;stroke-width:6px;}.cls-2{font-size:52.5px;font-family:PalatinoLinotype-Italic, Palatino Linotype;font-style:italic;}.cls-3{stroke-linecap:round;stroke-linejoin:round;stroke-width:2px;}</style></defs><title>Celsior</title><g id="Layer_2" data-name="Layer 2"><path class="cls-1" d="M135.13,204.37a79.81,79.81,0,0,1-5-156.74" transform="translate(-30.69 -8.74)"/><path class="cls-1" d="M35.43,105.62A113.81,113.81,0,0,1,241.84,61.91L226.45,72.38c-14.23-20.8-35.83-36.64-61.35-41.72" transform="translate(-30.69 -8.74)"/><path class="cls-1" d="M51.94,139.92a96.63,96.63,0,0,0,95.54,82.22c1.14,0,2.28,0,3.41-.06l-.7-16.81A79.59,79.59,0,0,0,207.63,178" transform="translate(-30.69 -8.74)"/><path class="cls-1" d="M212.62,79.44a79.39,79.39,0,0,0-65-33.7l1.41-16.8h-1.57A96.59,96.59,0,0,0,51,121.85l-17.19-.38c0,1.35-.07,2.7-.07,4.06A113.8,113.8,0,0,0,237.15,195.6l-14.49-9.39a96.57,96.57,0,0,1-53.89,33.57" transform="translate(-30.69 -8.74)"/></g><g id="Layer_3" data-name="Layer 3"><text class="cls-2" transform="translate(36.59 273.21)">Celsior</text><path class="cls-3" d="M109.37,132.5" transform="translate(-30.69 -8.74)"/><path class="cls-3" d="M173,112.52a69.32,69.32,0,0,0-15.57-9.23C103.71,78.74,72.79,132.5,72.79,132.5s26.4,30.25,60.36,25.34" transform="translate(-30.69 -8.74)"/><path class="cls-3" d="M122.55,108.44c-1.46,7.63-1.4,15.8.58,25.69,10.18,50.87,66.38,52.07,66.38,52.07s13.75-36.71-7.69-64.18" transform="translate(-30.69 -8.74)"/><path class="cls-3" d="M145.63,154.37a66.73,66.73,0,0,0,17.79-10.67C210.55,105.06,177,57.12,177,57.12S138.85,65.5,126,97" transform="translate(-30.69 -8.74)"/><path class="cls-3" d="M139.39,97.65a49.58,49.58,0,0,1,32.29-26.47s16.27,38.34-14.41,63.13a55,55,0,0,1-18.79,10.34" transform="translate(-30.69 -8.74)"/><path class="cls-3" d="M174.9,132.32c13.37,19.81,6.39,41,6.39,41s-30.69-6.08-42.81-28.63a41.21,41.21,0,0,1-4.84-19.8,65.84,65.84,0,0,1,2-17" transform="translate(-30.69 -8.74)"/><path class="cls-3" d="M126.88,146.6c-22.49.88-38.94-15.32-38.94-15.32s28.64-39.95,68.52-16a60.82,60.82,0,0,1,10.85,8.34" transform="translate(-30.69 -8.74)"/></g></svg>